<svg width="13" height="13" viewBox="0 0 13 13" fill="none" xmlns="http://www.w3.org/2000/svg">
<path d="M5.5955 8.98782H2.18261" stroke="#939AA6" stroke-width="1.5" stroke-linecap="round" stroke-linejoin="round"/>
<path d="M7.11776 3.7377H10.5306" stroke="#939AA6" stroke-width="1.5" stroke-linecap="round" stroke-linejoin="round"/>
<path fill-rule="evenodd" clip-rule="evenodd" d="M4.72674 3.70839C4.72674 3.00657 4.15357 2.4375 3.4467 2.4375C2.73983 2.4375 2.16666 3.00657 2.16666 3.70839C2.16666 4.4102 2.73983 4.97927 3.4467 4.97927C4.15357 4.97927 4.72674 4.4102 4.72674 3.70839Z" stroke="#939AA6" stroke-width="1.5" stroke-linecap="round" stroke-linejoin="round"/>
<path fill-rule="evenodd" clip-rule="evenodd" d="M10.8333 8.96661C10.8333 8.2648 10.2606 7.69572 9.55373 7.69572C8.84642 7.69572 8.27325 8.2648 8.27325 8.96661C8.27325 9.66843 8.84642 10.2375 9.55373 10.2375C10.2606 10.2375 10.8333 9.66843 10.8333 8.96661Z" stroke="#939AA6" stroke-width="1.5" stroke-linecap="round" stroke-linejoin="round"/>
</svg>
