<svg width="26" height="26" viewBox="0 0 26 26" fill="none" xmlns="http://www.w3.org/2000/svg">
<path d="M25.6132 5.34842C24.7087 5.74925 23.7369 6.02009 22.7153 6.1425C23.7694 5.51178 24.558 4.51909 24.934 3.34967C23.9437 3.93791 22.8598 4.35196 21.7295 4.57384C20.9694 3.76227 19.9626 3.22436 18.8655 3.0436C17.7684 2.86284 16.6423 3.04936 15.662 3.57419C14.6817 4.09903 13.9022 4.93281 13.4443 5.9461C12.9865 6.95938 12.876 8.09548 13.13 9.178C11.1233 9.07725 9.16026 8.55568 7.3682 7.64715C5.57615 6.73862 3.99515 5.46343 2.72783 3.90434C2.29449 4.65184 2.04533 5.5185 2.04533 6.4415C2.04484 7.27241 2.24946 8.0906 2.64103 8.82346C3.03259 9.55633 3.599 10.1812 4.28999 10.6427C3.48863 10.6172 2.70494 10.4006 2.00416 10.0111V10.0761C2.00408 11.2415 2.40719 12.371 3.14511 13.273C3.88302 14.175 4.91028 14.7939 6.05258 15.0248C5.30917 15.2259 4.52977 15.2556 3.77324 15.1114C4.09553 16.1142 4.72332 16.991 5.56872 17.6193C6.41413 18.2475 7.43482 18.5956 8.48791 18.6149C6.70023 20.0183 4.49245 20.7795 2.21974 20.7762C1.81716 20.7763 1.41491 20.7528 1.01508 20.7058C3.32201 22.189 6.00744 22.9762 8.75008 22.9732C18.0342 22.9732 23.1097 15.2837 23.1097 8.61467C23.1097 8.398 23.1042 8.17917 23.0945 7.9625C24.0817 7.24856 24.9339 6.36447 25.6111 5.35167L25.6132 5.34842Z" fill="#9CA3AF"/>
</svg>
